<?xml version="1.0" encoding="utf-8" ?>
<svg baseProfile="full" height="200mm" version="1.1" viewBox="0,0,200,200" width="200mm" xmlns="http://www.w3.org/2000/svg" xmlns:ev="http://www.w3.org/2001/xml-events" xmlns:xlink="http://www.w3.org/1999/xlink"><defs /><rect fill="#1a1a1a" height="200" width="200" x="0" y="0" /><text alignment-baseline="middle" fill="#e1ed5e" style="dominant-baseline: central; font-size:9.0px; font-family:Arial;" text-anchor="middle" x="100.0" y="100.0">2024</text><line stroke="#e1ed5e" stroke-width="0.3" x1="100.0" x2="100.0" y1="15.0" y2="10.0" /><path d="M 100.0 14.0 a86.0,86.0 0 0,1 42.35913384403234,11.155469271406648" fill="none" id="id37" stroke="none" /><text fill="#e1ed5e" style="font-size:6.75px; font-family:Arial;" text-anchor="middle"><textPath startOffset="22.145653131862478" xlink:href="#id37">January</textPath></text><path d="M 100.0 79.0 l 0.0 -63.0 a84.0,84.0 0 0,0 1.441971699395419,0.012377592777739643 l -1.0814787745465644 62.990716805416696" fill="#4dd2ff" stroke="none" /><path d="M 102.87502721639298 79.19773525538626 l 0.49847261343438504 -3.606699516956579 a24.64098288267865,24.64098288267865 0 0,0 0.41851523654296774,0.061507327408125013 l -0.5603129555850348 3.597611116249572" fill="#ff0c01" stroke="none" /><path d="M 104.29559338865022 79.4440306129975 l 0.7556888977485583 -3.6162449381872674 a24.694359641825017,24.694359641825017 0 0,0 0.4142038839702109,0.09027380866783093 l -0.8176551983379033 3.602739671385718" fill="#ff0d01" stroke="none" /><path d="M 105.69591212413111 79.78721728523813 l 1.2164963174716792 -4.316916273021672 a25.48504508324069,25.48504508324069 0 0,0 0.42006634236034207,0.12227519014862676 l -1.2904226722136258 4.295397388570529" fill="#ff1902" stroke="none" /><path d="M 107.40779381753099 80.34994680014964 l 1.1860580461620396 -3.146159879617513 a24.362299165300524,24.362299165300524 0 0,0 0.3900609870859456,0.15088396926921732 l -1.239891295741511 3.1253360222102575" fill="#ff0801" stroke="none" /><path d="M 110.02825361518725 81.54914285379988 l 1.3830284835886095 -2.5446166360584925 a23.896177068295902,23.896177068295902 0 0,0 0.358733747696724,0.19898356267743886 l -1.4265064194414339 2.5205001579479074" fill="#ff0100" stroke="none" /><line stroke="#e1ed5e" stroke-width="0.3" x1="143.13028292997686" x2="145.6673583964461" y1="26.7553504044142" y2="22.446841604673864" /><path d="M 143.63769802327073 25.89364864446614 a86.0,86.0 0 0,1 29.32050498858742,28.57503671076993" fill="none" id="id38" stroke="none" /><text fill="#e1ed5e" style="font-size:6.75px; font-family:Arial;" text-anchor="middle"><textPath startOffset="20.669276256404974" xlink:href="#id38">February</textPath></text><path d="M 111.27062007382361 82.28071324371311 l 1.9574961867572092 -3.0775091370569045 a24.647307748166824,24.647307748166824 0 0,0 0.3550554628573167,0.23014266136570777 l -2.0100372818715333 3.043452633987302" fill="#ff0c01" stroke="none" /><path d="M 116.57777611688842 87.10902102172516 l 2.8496476026503146 -2.215903211760318 a24.609808651878986,24.609808651878986 0 0,0 0.25646704576917095,0.3357235956146159 l -2.8872666257737922 2.1666587029048205" fill="#ff0c01" stroke="none" /><line stroke="#e1ed5e" stroke-width="0.3" x1="172.87174338648825" x2="177.1583165268699" y1="56.24261187166439" y2="53.66864786411523" /><path d="M 173.72905801456457 55.72781907015455 a86.0,86.0 0 0,1 12.242430191666344,42.057860355516425" fill="none" id="id39" stroke="none" /><text fill="#e1ed5e" style="font-size:6.75px; font-family:Arial;" text-anchor="middle"><textPath startOffset="22.145653131862474" xlink:href="#id39">March</textPath></text><path d="M 118.70294669586156 90.45014215332178 l 3.106210486329503 -1.5860532069458222 a24.487708181692742,24.487708181692742 0 0,0 0.18794909190337591,0.3760240859121048 l -3.132979491444616 1.532497264869967" fill="#ff0a01" stroke="none" /><path d="M 119.83427380445688 93.10060997987247 l 3.2659280748854687 -1.13605931774804 a24.457877522956423,24.457877522956423 0 0,0 0.13453530529995436,0.39772972476217416 l -3.284948801757788 1.0798279185117041" fill="#ff0901" stroke="none" /><path d="M 120.26092885502905 94.47779374421319 l 5.235733866654337 -1.4270225476309732 a26.426721153134586,26.426721153134586 0 0,0 0.11553576141418588,0.43870810473745114 l -5.259459108873254 1.3369339385207235" fill="#ff2703" stroke="none" /><path d="M 120.43855184770803 95.1765574152323 l 3.486023829713743 -0.8226921318616738 a24.581785097567856,24.581785097567856 0 0,0 0.09339806925283498,0.4115291262282934 l -3.4996327605242445 0.7627286716943541" fill="#ff0b01" stroke="none" /><path d="M 120.65975698304385 96.23510406497455 l 3.476775947574495 -0.6335843951485312 a24.53403454643673,24.53403454643673 0 0,0 0.07194919024733971,0.41498380959339015 l -3.4871399553140687 0.5738075526345483" fill="#ff0b01" stroke="none" /><path d="M 120.7213421655516 96.59031103205396 l 3.4986573531901084 -0.5757027360721667 a24.545706828737,24.545706828737 0 0,0 0.06484567567952015,0.41635575501153543 l -3.5080245210078935 0.51555879912919" fill="#ff0b01" stroke="none" /><path d="M 120.77682067341334 96.94652285012252 l 2.893256355455813 -0.42520904949750193 a23.924334979813363,23.924334979813363 0 0,0 0.05622843423922514,0.4068409399918581 l -2.9001293062502507 0.3754798013055582" fill="#ff0100" stroke="none" /><path d="M 120.82617615685814 97.30363454192243 l 3.336916697948593 -0.43203067394913636 a24.364767978966913,24.364767978966913 0 0,0 0.0501425924199191,0.4152525961888674 l -3.3438413766281756 0.374684400836856" fill="#ff0801" stroke="none" /><path d="M 120.9064616781168 98.02013634271609 l 2.813909610964735 -0.2664801657691525 a23.826499421091054,23.826499421091054 0 0,0 0.035066227661919074,0.40752271937008955 l -2.818069461324395 0.21813639902340096" fill="#ff0000" stroke="none" /><path d="M 120.98066250479742 99.09900007780936 l 3.4526530458769336 -0.14827177764167732 a24.455835293420144,24.455835293420144 0 0,0 0.01441183888140965,0.4195849643367131 l -3.4546895717551913 0.08898054874084425" fill="#ff0901" stroke="none" /><line stroke="#e1ed5e" stroke-width="0.3" x1="184.99686870605535" x2="189.99668451229388" y1="99.2704041080226" y2="99.22748670261217" /><path d="M 185.99683186730306 99.26182062694052 a86.0,86.0 0 0,1 -10.086455211305974,41.156179273409016" fill="none" id="id40" stroke="none" /><text fill="#e1ed5e" style="font-size:6.75px; font-family:Arial;" text-anchor="middle"><textPath startOffset="21.40746469413373" xlink:href="#id40">April</textPath></text><path d="M 120.99922638620191 100.18025310272382 l 3.4097527953274525 0.029268626832979996 a24.409878410993574,24.409878410993574 0 0,0 -0.007193438200696296,0.41898171209822027 l -3.4087479255280875 -0.08779725490027131" fill="#ff0901" stroke="none" /><line stroke="#e1ed5e" stroke-width="0.3" x1="174.33088141563837" x2="178.70328620479359" y1="141.23008692659167" y2="143.65538615756765" /><path d="M 175.20536237346943 141.71514677278685 a86.0,86.0 0 0,1 -30.301960400862466,31.631185727798858" fill="none" id="id41" stroke="none" /><text fill="#e1ed5e" style="font-size:6.75px; font-family:Arial;" text-anchor="middle"><textPath startOffset="22.145653131862474" xlink:href="#id41">May</textPath></text><line stroke="#e1ed5e" stroke-width="0.3" x1="143.1302829299769" x2="145.66735839644613" y1="173.24464959558577" y2="177.55315839532614" /><path d="M 143.63769802327073 174.10635135553383 a86.0,86.0 0 0,1 -40.68552437913181,11.842963189579606" fill="none" id="id42" stroke="none" /><text fill="#e1ed5e" style="font-size:6.75px; font-family:Arial;" text-anchor="middle"><textPath startOffset="21.407464694133747" xlink:href="#id42">June</textPath></text><line stroke="#e1ed5e" stroke-width="0.3" x1="101.45913802915013" x2="101.54496967792366" y1="184.9874750549273" y2="189.98673829345242" /><path d="M 101.47630435890484 185.9873277026323 a86.0,86.0 0 0,1 -42.54439059252881,-10.42667462771756" fill="none" id="id43" stroke="none" /><text fill="#e1ed5e" style="font-size:6.75px; font-family:Arial;" text-anchor="middle"><textPath startOffset="22.145653131862474" xlink:href="#id43">July</textPath></text><line stroke="#e1ed5e" stroke-width="0.3" x1="58.13341422392154" x2="55.67067388415222" y1="173.97424548756322" y2="178.32567169271397" /><path d="M 57.64086615596768 174.84453072859336 a86.0,86.0 0 0,1 -31.369924170532247,-30.572349798747897" fill="none" id="id44" stroke="none" /><text fill="#e1ed5e" style="font-size:6.75px; font-family:Arial;" text-anchor="middle"><textPath startOffset="22.145653131862474" xlink:href="#id44">August</textPath></text><line stroke="#e1ed5e" stroke-width="0.3" x1="26.387840678322732" x2="22.057713659400548" y1="142.50000000000003" y2="145.00000000000006" /><path d="M 25.521815274538298 143.00000000000003 a86.0,86.0 0 0,1 -11.493303480769221,-40.785679425670985" fill="none" id="id45" stroke="none" /><text fill="#e1ed5e" style="font-size:6.75px; font-family:Arial;" text-anchor="middle"><textPath startOffset="21.40746469413373" xlink:href="#id45">September</textPath></text><line stroke="#e1ed5e" stroke-width="0.3" x1="15.003131293944662" x2="10.003315487706104" y1="100.72959589197737" y2="100.7725132973878" /><path d="M 14.003168132696942 100.73817937305945 a86.0,86.0 0 0,1 10.791469493833604,-42.45332614584628" fill="none" id="id46" stroke="none" /><text fill="#e1ed5e" style="font-size:6.75px; font-family:Arial;" text-anchor="middle"><textPath startOffset="22.145653131862435" xlink:href="#id46">October</textPath></text><line stroke="#e1ed5e" stroke-width="0.3" x1="26.387840678322718" x2="22.05771365940052" y1="57.49999999999999" y2="54.99999999999999" /><path d="M 25.521815274538284 56.99999999999999 a86.0,86.0 0 0,1 29.574782752854787,-30.34633250058573" fill="none" id="id47" stroke="none" /><text fill="#e1ed5e" style="font-size:6.75px; font-family:Arial;" text-anchor="middle"><textPath startOffset="21.40746469413373" xlink:href="#id47">November</textPath></text><line stroke="#e1ed5e" stroke-width="0.3" x1="56.869717070023135" x2="54.33264160355391" y1="26.7553504044142" y2="22.446841604673864" /><path d="M 56.362301976729285 25.89364864446614 a86.0,86.0 0 0,1 42.16139366436587,-11.88097634709845" fill="none" id="id48" stroke="none" /><text fill="#e1ed5e" style="font-size:6.75px; font-family:Arial;" text-anchor="middle"><textPath startOffset="22.145653131862474" xlink:href="#id48">December</textPath></text></svg>