<?xml version="1.0" encoding="utf-8" ?>
<svg baseProfile="full" height="200mm" version="1.1" viewBox="0,0,200,200" width="200mm" xmlns="http://www.w3.org/2000/svg" xmlns:ev="http://www.w3.org/2001/xml-events" xmlns:xlink="http://www.w3.org/1999/xlink"><defs /><rect fill="#1a1a1a" height="200" width="200" x="0" y="0" /><text alignment-baseline="middle" fill="#e1ed5e" style="dominant-baseline: central; font-size:9.0px; font-family:Arial;" text-anchor="middle" x="100.0" y="100.0">2021</text><line stroke="#e1ed5e" stroke-width="0.3" x1="100.0" x2="100.0" y1="15.0" y2="10.0" /><path d="M 100.0 14.0 a86.0,86.0 0 0,1 42.46469731375804,11.215312516191453" fill="none" id="id1" stroke="none" /><text fill="#e1ed5e" style="font-size:6.75px; font-family:Arial;" text-anchor="middle"><textPath startOffset="22.20632615414155" xlink:href="#id1">January</textPath></text><path d="M 107.76421540070413 80.48803036053334 l 23.292646202112408 -58.53590891839998 a84.0,84.0 0 0,0 1.33886452164645,0.5461564552656828 l -24.296794593347244 58.12629157695072" fill="#4dd2ff" stroke="none" /><line stroke="#e1ed5e" stroke-width="0.3" x1="143.23703022742887" x2="145.7803849466894" y1="26.81831364943548" y2="22.513508569990506" /><path d="M 143.74570117128098 25.957352633546492 a86.0,86.0 0 0,1 28.547481713284135,27.462654790039103" fill="none" id="id2" stroke="none" /><text fill="#e1ed5e" style="font-size:6.75px; font-family:Arial;" text-anchor="middle"><textPath startOffset="19.985693538727396" xlink:href="#id2">February</textPath></text><line stroke="#e1ed5e" stroke-width="0.3" x1="172.23445277983987" x2="176.4835382374775" y1="55.19839476539836" y2="52.563006222186495" /><path d="M 173.08426987136738 54.67131705675599 a86.0,86.0 0 0,1 12.851231095245387,41.99856678651699" fill="none" id="id3" stroke="none" /><text fill="#e1ed5e" style="font-size:6.75px; font-family:Arial;" text-anchor="middle"><textPath startOffset="22.20632615414155" xlink:href="#id3">March</textPath></text><line stroke="#e1ed5e" stroke-width="0.3" x1="184.98032266829074" x2="189.97916517819016" y1="98.17113171792111" y2="98.06355123074" /><path d="M 185.9800911702706 98.14961562048488 a86.0,86.0 0 0,1 -9.607161424134198,41.387399972396054" fill="none" id="id4" stroke="none" /><text fill="#e1ed5e" style="font-size:6.75px; font-family:Arial;" text-anchor="middle"><textPath startOffset="21.466115282336823" xlink:href="#id4">April</textPath></text><line stroke="#e1ed5e" stroke-width="0.3" x1="174.80103733775053" x2="179.2010983576182" y1="140.37084112569926" y2="142.7455964860345" /><path d="M 175.68104954172406 140.8457921977663 a86.0,86.0 0 0,1 -30.038265399797805,32.042727171017184" fill="none" id="id5" stroke="none" /><text fill="#e1ed5e" style="font-size:6.75px; font-family:Arial;" text-anchor="middle"><textPath startOffset="22.206326154141568" xlink:href="#id5">May</textPath></text><line stroke="#e1ed5e" stroke-width="0.3" x1="143.8653032363475" x2="146.44561519142675" y1="172.8068346515853" y2="177.08958963109032" /><path d="M 144.38136562736335 173.6633856474863 a86.0,86.0 0 0,1 -40.68145358897372,12.25698825130547" fill="none" id="id6" stroke="none" /><text fill="#e1ed5e" style="font-size:6.75px; font-family:Arial;" text-anchor="middle"><textPath startOffset="21.466115282336833" xlink:href="#id6">June</textPath></text><path d="M 109.57404056367764 118.69057910512821 l 24.22204822239814 47.28662944112905 a74.1293981143287,74.1293981143287 0 0,0 -1.140696444117822,0.5719688775504089 l -23.40449787059756 -47.69656615958876" fill="#40ffc8" stroke="none" /><line stroke="#e1ed5e" stroke-width="0.3" x1="102.19456741930631" x2="102.32365962044197" y1="184.97166512339345" y2="189.96999836594603" /><path d="M 102.22038585953345 185.97133177190398 a86.0,86.0 0 0,1 -42.740103519485714,-10.115201625700543" fill="none" id="id7" stroke="none" /><text fill="#e1ed5e" style="font-size:6.75px; font-family:Arial;" text-anchor="middle"><textPath startOffset="22.20632615414155" xlink:href="#id7">July</textPath></text><path d="M 96.58105272829116 120.7198165907248 l -9.219963672647294 55.87566613009346 a77.63124398780772,77.63124398780772 0 0,0 -1.3165927329600933,-0.22890652280512605 l 10.180405377079438 -55.70868102876732" fill="#45ffed" stroke="none" /><path d="M 96.22490169976321 120.6578951692458 l -9.33419859099841 51.078112580451744 a72.92399106499326,72.92399106499326 0 0,0 -1.23287516679795,-0.2362834599844485 l 10.212041372368056 -50.90987192211883" fill="#3fffbb" stroke="none" /><path d="M 95.86986931433489 120.58985236759428 l -7.683329137236223 38.30353678066572 a60.066539090875644,60.066539090875644 0 0,0 -1.0120025910827297,-0.21207498247827863 l 8.341523189748338 -38.1656058174609" fill="#3bff2e" stroke="none" /><path d="M 95.51606077576429 120.51570834832081 l -13.264190886465887 60.68866193198071 a83.12127209713955,83.12127209713955 0 0,0 -1.3951701700511887,-0.3175361884195438 l 14.306881205909939 -60.451349009983474" fill="#4cdaff" stroke="none" /><path d="M 95.16358092515715 120.4354850818985 l -0.8655540210585728 3.6572546777275416 a24.75828358976949,24.75828358976949 0 0,0 -0.41387210140879305,-0.10171969306808158 l 0.9283794072105764 -3.6418137263454304" fill="#ff0000" stroke="none" /><path d="M 94.81253420990036 120.34920634021253 l -9.738624806324795 38.202331094314374 a60.42409053051171,60.42409053051171 0 0,0 -1.0056570059446492,-0.26560315554427455 l 10.394772255080934 -38.029036589466514" fill="#37ff2e" stroke="none" /><path d="M 94.46302465271185 120.25689768951611 l -11.111017805286945 40.64940455592322 a63.140583852392396,63.140583852392396 0 0,0 -1.0459352928535437,-0.2955917613256652 l 11.809084266245103 -40.45212400125903" fill="#32ff48" stroke="none" /><path d="M 93.76903079525671 120.05430185196036 l -13.959700656455292 44.929134060629224 a68.04785149032665,68.04785149032665 0 0,0 -1.115591560978148,-0.35717718860484526 l 14.73101356252438 -44.68218402536468" fill="#38ff83" stroke="none" /><path d="M 93.42475214034765 119.94407469862007 l -11.032119594437464 33.46268033874607 a56.23433890679764,56.23433890679764 0 0,0 -0.9167007740982185,-0.3109946740187689 l 11.60649010147291 -33.26782267782918" fill="#63ff29" stroke="none" /><path d="M 93.08242187328487 119.8279376855182 l -16.835435674927684 48.25561249273951 a72.10808186005482,72.10808186005482 0 0,0 -1.1684271322612902,-0.4189563989827287 l 17.663582367818698 -47.95866855271682" fill="#3effb2" stroke="none" /><path d="M 92.7421414339146 119.70592522655815 l -3.1792881699818802 8.632134999722817 a30.199001463269063,30.199001463269063 0 0,0 -0.4862467475254791,-0.18385691343387114 l 3.3274051382676424 -8.576129836182313" fill="#ff5107" stroke="none" /><path d="M 92.40401165467489 119.57807347666478 l -16.72314669097791 43.10261940811281 a67.23309891288478,67.23309891288478 0 0,0 -1.0753419484395743,-0.42790075381267173 l 17.462609715459344 -42.80837180989407" fill="#37ff7a" stroke="none" /><path d="M 91.7346041902142 119.30500536409082 l -15.384805333632631 35.93339706002151 a60.088377549176094,60.088377549176094 0 0,0 -0.9473342618996202,-0.41528350082910864 l 16.001060270189996 -35.66324900589795" fill="#3aff2e" stroke="none" /><path d="M 91.40352486487194 119.15986991738527 l -10.095465905416534 22.500828591101094 a45.66182716534888,45.66182716534888 0 0,0 -0.7143510283597029,-0.3279235204145435 l 10.481284929543655 -22.323718000352475" fill="#ddff1b" stroke="none" /><path d="M 90.7491055286396 118.85261126421891 l -21.38719182467388 43.58545162871847 a69.5500109971641,69.5500109971641 0 0,0 -1.0702292511597433,-0.5366351641262991 l 22.134274983516384 -43.210848623682864" fill="#3aff95" stroke="none" /><path d="M 90.10565033884886 118.52300852407294 l -2.1634027341292237 4.050061768346291 a25.591656750831675,25.591656750831675 0 0,0 -0.38677181234294666,-0.2108988303660342 l 2.232797358340811 -4.012222286220491" fill="#ff0d01" stroke="none" /><line stroke="#e1ed5e" stroke-width="0.3" x1="58.666819895761336" x2="56.23545636021788" y1="174.27360380694188" y2="178.64263932499728" /><path d="M 58.180547188652646 175.14741091055294 a86.0,86.0 0 0,1 -31.652253787137756,-30.449443065178592" fill="none" id="id8" stroke="none" /><text fill="#e1ed5e" style="font-size:6.75px; font-family:Arial;" text-anchor="middle"><textPath startOffset="22.20632615414155" xlink:href="#id8">August</textPath></text><line stroke="#e1ed5e" stroke-width="0.3" x1="26.63291911575756" x2="22.317208475507996" y1="142.92168965132927" y2="145.44649492493687" /><path d="M 25.769776987707644 143.4266507060508 a86.0,86.0 0 0,1 -11.730757126820373,-40.83630448921669" fill="none" id="id9" stroke="none" /><text fill="#e1ed5e" style="font-size:6.75px; font-family:Arial;" text-anchor="middle"><textPath startOffset="21.46611528233685" xlink:href="#id9">September</textPath></text><line stroke="#e1ed5e" stroke-width="0.3" x1="15.007084014347285" x2="10.007500721073583" y1="101.09737516637583" y2="101.16192664675087" /><path d="M 14.007167355692545 101.11028546245083 a86.0,86.0 0 0,1 10.666146001902534,-42.60595125391555" fill="none" id="id10" stroke="none" /><text fill="#e1ed5e" style="font-size:6.75px; font-family:Arial;" text-anchor="middle"><textPath startOffset="22.20632615414155" xlink:href="#id10">October</textPath></text><line stroke="#e1ed5e" stroke-width="0.3" x1="26.266209847984243" x2="21.928928074336255" y1="57.711370442889674" y2="55.22380399835377" /><path d="M 25.398753493254645 57.213857153982495 a86.0,86.0 0 0,1 29.58750427330803,-30.492523968695096" fill="none" id="id11" stroke="none" /><text fill="#e1ed5e" style="font-size:6.75px; font-family:Arial;" text-anchor="middle"><textPath startOffset="21.46611528233685" xlink:href="#id11">November</textPath></text><line stroke="#e1ed5e" stroke-width="0.3" x1="56.762969772571076" x2="54.21961505331055" y1="26.818313649435495" y2="22.513508569990535" /><path d="M 56.25429882871897 25.957352633546506 a86.0,86.0 0 0,1 42.265352541879196,-11.944610805530505" fill="none" id="id12" stroke="none" /><text fill="#e1ed5e" style="font-size:6.75px; font-family:Arial;" text-anchor="middle"><textPath startOffset="22.20632615414155" xlink:href="#id12">December</textPath></text></svg>