<?xml version="1.0" encoding="utf-8" ?>
<svg baseProfile="full" height="200mm" version="1.1" viewBox="0,0,200,200" width="200mm" xmlns="http://www.w3.org/2000/svg" xmlns:ev="http://www.w3.org/2001/xml-events" xmlns:xlink="http://www.w3.org/1999/xlink"><defs /><rect fill="#1a1a1a" height="200" width="200" x="0" y="0" /><text alignment-baseline="middle" fill="#e1ed5e" style="dominant-baseline: central; font-size:9.0px; font-family:Arial;" text-anchor="middle" x="100.0" y="100.0">2023</text><line stroke="#e1ed5e" stroke-width="0.3" x1="100.0" x2="100.0" y1="15.0" y2="10.0" /><path d="M 100.0 14.0 a86.0,86.0 0 0,1 42.46469731375804,11.215312516191453" fill="none" id="id25" stroke="none" /><text fill="#e1ed5e" style="font-size:6.75px; font-family:Arial;" text-anchor="middle"><textPath startOffset="22.20632615414155" xlink:href="#id25">January</textPath></text><line stroke="#e1ed5e" stroke-width="0.3" x1="143.23703022742887" x2="145.7803849466894" y1="26.81831364943548" y2="22.513508569990506" /><path d="M 143.74570117128098 25.957352633546492 a86.0,86.0 0 0,1 28.547481713284135,27.462654790039103" fill="none" id="id26" stroke="none" /><text fill="#e1ed5e" style="font-size:6.75px; font-family:Arial;" text-anchor="middle"><textPath startOffset="19.985693538727396" xlink:href="#id26">February</textPath></text><path d="M 115.68641384162765 86.03803664274999 l 9.957250950591565 -8.862623051686425 a34.33015130631833,34.33015130631833 0 0,0 0.3890883493098726,0.4447952439832508 l -10.108331163479285 8.689912251500227" fill="#ffa80f" stroke="none" /><line stroke="#e1ed5e" stroke-width="0.3" x1="172.23445277983987" x2="176.4835382374775" y1="55.19839476539836" y2="52.563006222186495" /><path d="M 173.08426987136738 54.67131705675599 a86.0,86.0 0 0,1 12.851231095245387,41.99856678651699" fill="none" id="id27" stroke="none" /><text fill="#e1ed5e" style="font-size:6.75px; font-family:Arial;" text-anchor="middle"><textPath startOffset="22.20632615414155" xlink:href="#id27">March</textPath></text><line stroke="#e1ed5e" stroke-width="0.3" x1="184.98032266829074" x2="189.97916517819016" y1="98.17113171792111" y2="98.06355123074" /><path d="M 185.9800911702706 98.14961562048488 a86.0,86.0 0 0,1 -9.607161424134198,41.387399972396054" fill="none" id="id28" stroke="none" /><text fill="#e1ed5e" style="font-size:6.75px; font-family:Arial;" text-anchor="middle"><textPath startOffset="21.466115282336823" xlink:href="#id28">April</textPath></text><line stroke="#e1ed5e" stroke-width="0.3" x1="174.80103733775053" x2="179.2010983576182" y1="140.37084112569926" y2="142.7455964860345" /><path d="M 175.68104954172406 140.8457921977663 a86.0,86.0 0 0,1 -30.038265399797805,32.042727171017184" fill="none" id="id29" stroke="none" /><text fill="#e1ed5e" style="font-size:6.75px; font-family:Arial;" text-anchor="middle"><textPath startOffset="22.206326154141568" xlink:href="#id29">May</textPath></text><line stroke="#e1ed5e" stroke-width="0.3" x1="143.8653032363475" x2="146.44561519142675" y1="172.8068346515853" y2="177.08958963109032" /><path d="M 144.38136562736335 173.6633856474863 a86.0,86.0 0 0,1 -40.68145358897372,12.25698825130547" fill="none" id="id30" stroke="none" /><text fill="#e1ed5e" style="font-size:6.75px; font-family:Arial;" text-anchor="middle"><textPath startOffset="21.466115282336833" xlink:href="#id30">June</textPath></text><line stroke="#e1ed5e" stroke-width="0.3" x1="102.19456741930631" x2="102.32365962044197" y1="184.97166512339345" y2="189.96999836594603" /><path d="M 102.22038585953345 185.97133177190398 a86.0,86.0 0 0,1 -42.740103519485714,-10.115201625700543" fill="none" id="id31" stroke="none" /><text fill="#e1ed5e" style="font-size:6.75px; font-family:Arial;" text-anchor="middle"><textPath startOffset="22.20632615414155" xlink:href="#id31">July</textPath></text><line stroke="#e1ed5e" stroke-width="0.3" x1="58.666819895761336" x2="56.23545636021788" y1="174.27360380694188" y2="178.64263932499728" /><path d="M 58.180547188652646 175.14741091055294 a86.0,86.0 0 0,1 -31.652253787137756,-30.449443065178592" fill="none" id="id32" stroke="none" /><text fill="#e1ed5e" style="font-size:6.75px; font-family:Arial;" text-anchor="middle"><textPath startOffset="22.20632615414155" xlink:href="#id32">August</textPath></text><path d="M 86.51685102203217 116.09983520530335 l -2.744717224087996 3.2773868378360502 a25.274896153712543,25.274896153712543 0 0,0 -0.33114269084838505,-0.28220698512825365 l 2.800725391513437 -3.2296554624848453" fill="#ff2c04" stroke="none" /><path d="M 84.67929136418377 114.36230785411682 l -13.80056860051813 12.93726155323753 a39.91635351209331,39.91635351209331 0 0,0 -0.46560257964283597,-0.5053196425759984 l 14.021217588156695 -12.697790655860187" fill="#ffef16" stroke="none" /><line stroke="#e1ed5e" stroke-width="0.3" x1="26.63291911575756" x2="22.317208475507996" y1="142.92168965132927" y2="145.44649492493687" /><path d="M 25.769776987707644 143.4266507060508 a86.0,86.0 0 0,1 -11.730757126820373,-40.83630448921669" fill="none" id="id33" stroke="none" /><text fill="#e1ed5e" style="font-size:6.75px; font-family:Arial;" text-anchor="middle"><textPath startOffset="21.46611528233685" xlink:href="#id33">September</textPath></text><path d="M 80.58989483394504 108.01547362559985 l -11.46085226754125 4.7328006876556366 a33.39961842346284,33.39961842346284 0 0,0 -0.21486672065764842,-0.5332815795807703 l 11.540621602456287 -4.53481974023206" fill="#ff9c0e" stroke="none" /><line stroke="#e1ed5e" stroke-width="0.3" x1="15.007084014347285" x2="10.007500721073583" y1="101.09737516637583" y2="101.16192664675087" /><path d="M 14.007167355692545 101.11028546245083 a86.0,86.0 0 0,1 10.666146001902534,-42.60595125391555" fill="none" id="id34" stroke="none" /><text fill="#e1ed5e" style="font-size:6.75px; font-family:Arial;" text-anchor="middle"><textPath startOffset="22.20632615414155" xlink:href="#id34">October</textPath></text><path d="M 79.46518482838121 95.60439243477599 l -8.922351655253308 -1.9098860207724324 a30.124473884687458,30.124473884687458 0 0,0 0.11290310396835412,-0.5061224770161847 l 8.888154164282918 2.0631866673385764" fill="#ff700a" stroke="none" /><path d="M 81.26839172434947 90.50648371742162 l -19.34865019431946 -9.80624423501649 a42.69176549612624,42.69176549612624 0 0,0 0.33785565272365264,-0.6526295837676925 l 19.176985108435694 10.137846541044517" fill="#edff19" stroke="none" /><line stroke="#e1ed5e" stroke-width="0.3" x1="26.266209847984243" x2="21.928928074336255" y1="57.711370442889674" y2="55.22380399835377" /><path d="M 25.398753493254645 57.213857153982495 a86.0,86.0 0 0,1 29.58750427330803,-30.492523968695096" fill="none" id="id35" stroke="none" /><text fill="#e1ed5e" style="font-size:6.75px; font-family:Arial;" text-anchor="middle"><textPath startOffset="21.46611528233685" xlink:href="#id35">November</textPath></text><path d="M 85.57189188830299 84.74124197986013 l -2.124080056978429 -2.2463668385297826 a24.091582129217947,24.091582129217947 0 0,0 0.30377433403455456,-0.28232513696221506 l 2.085097839149018 2.282596561566645" fill="#ff1b02" stroke="none" /><path d="M 86.10567301691215 84.25364557470407 l -1.4674848833463174 -1.6630914987866374 a23.21796871397825,23.21796871397825 0 0,0 0.3019510113625075,-0.26184894157889 l 1.4386400733370364 1.688105433785208" fill="#ff0e01" stroke="none" /><path d="M 86.65592168130627 83.78471172551755 l -1.4019395490966486 -1.7035911652402118 a23.206276808926255,23.206276808926255 0 0,0 0.3106288353790771,-0.2511735820890314 l 1.3724073151530711 1.7274708445933775" fill="#ff0e01" stroke="none" /><path d="M 88.09926311788651 82.69761687909137 l -0.7049613522331833 -1.0249374910645164 a22.24397241477939,22.24397241477939 0 0,0 0.31734236729611126,-0.21427098298414093 l 0.6872142905305325 1.0369203863473226" fill="#ff0000" stroke="none" /><path d="M 88.70189139769569 82.29822771554957 l -0.9523889926780529 -1.4921942838437163 a22.770222747032186,22.770222747032186 0 0,0 0.33220762599564624,-0.20802838492168843 l 0.9265622143101644 1.508367010088335" fill="#ff0801" stroke="none" /><line stroke="#e1ed5e" stroke-width="0.3" x1="56.762969772571076" x2="54.21961505331055" y1="26.818313649435495" y2="22.513508569990535" /><path d="M 56.25429882871897 25.957352633546506 a86.0,86.0 0 0,1 42.265352541879196,-11.944610805530505" fill="none" id="id36" stroke="none" /><text fill="#e1ed5e" style="font-size:6.75px; font-family:Arial;" text-anchor="middle"><textPath startOffset="22.20632615414155" xlink:href="#id36">December</textPath></text><path d="M 89.94658935756843 81.56283822128135 l -2.2547359845426738 -4.135007868857644 a25.709790275108464,25.709790275108464 0 0,0 0.39036638009222563,-0.2085202010014005 l 2.1832245579221428 4.173206796360795" fill="#ff3204" stroke="none" /><path d="M 90.58718382345135 81.22770947309562 l -0.7739800239492276 -1.5435739526916745 a22.726750018068813,22.726750018068813 0 0,0 0.3512134946826024,-0.17233893653729168 l 0.7472952622561992 1.5566680493637959" fill="#ff0701" stroke="none" /><path d="M 90.91171255644093 81.06846463323043 l -1.0737668891585255 -2.2367311733936623 a23.481117021481285,23.481117021481285 0 0,0 0.365882529164396,-0.17178675339177574 l 1.035106148694521 2.2548829094254454" fill="#ff1202" stroke="none" /><path d="M 91.56875222667455 80.76684994638697 l -0.7223484052421817 -1.6478029874730233 a22.799178119053515,22.799178119053515 0 0,0 0.3607874856187282,-0.15447037261140242 l 0.6938771618331453 1.659992888047212" fill="#ff0801" stroke="none" /><path d="M 92.23578459929587 80.48803036053334 l -1.197267008874513 -3.0088085301414935 a24.23826760191179,24.23826760191179 0 0,0 0.38898591586129505,-0.15092049209539204 l 1.1452979280135416 3.0289717261274367" fill="#ff1d02" stroke="none" /><path d="M 94.63758080256005 79.69619591428918 l -1.1980664643235226 -4.536256095923664 a25.691799507730618,25.691799507730618 0 0,0 0.42855280958310205,-0.10924765328907714 l 1.1198047660554211 4.556206745381605" fill="#ff3204" stroke="none" /><path d="M 99.27714615592234 79.0124445844662 l -2.1685615322329856 -62.9626662466014 a84.0,84.0 0 0,0 1.445493459220484,-0.03733283143056143 l 1.0844414378176228 62.990665870174325" fill="#4dd2ff" stroke="none" /><path d="M 99.63851952072746 79.00311137660856 l -0.45998091732355706 -26.71836694851316 a47.722326149489724,47.722326149489724 0 0,0 0.8214613965960862,-0.0070705775851209315 l 6.545082236948841e-15 26.722326149489724" fill="#b3ff20" stroke="none" /></svg>