<?xml version="1.0" encoding="utf-8" ?>
<svg baseProfile="full" height="200mm" version="1.1" viewBox="0,0,200,200" width="200mm" xmlns="http://www.w3.org/2000/svg" xmlns:ev="http://www.w3.org/2001/xml-events" xmlns:xlink="http://www.w3.org/1999/xlink"><defs /><rect fill="#1a1a1a" height="200" width="200" x="0" y="0" /><text alignment-baseline="middle" fill="#e1ed5e" style="dominant-baseline: central; font-size:9.0px; font-family:Arial;" text-anchor="middle" x="100.0" y="100.0">2023</text><line stroke="#e1ed5e" stroke-width="0.3" x1="100.0" x2="100.0" y1="15.0" y2="10.0" /><path d="M 100.0 14.0 a86.0,86.0 0 0,1 42.46469731375804,11.215312516191453" fill="none" id="id25" stroke="none" /><text fill="#e1ed5e" style="font-size:6.75px; font-family:Arial;" text-anchor="middle"><textPath startOffset="22.20632615414155" xlink:href="#id25">January</textPath></text><line stroke="#e1ed5e" stroke-width="0.3" x1="143.23703022742887" x2="145.7803849466894" y1="26.81831364943548" y2="22.513508569990506" /><path d="M 143.74570117128098 25.957352633546492 a86.0,86.0 0 0,1 28.547481713284135,27.462654790039103" fill="none" id="id26" stroke="none" /><text fill="#e1ed5e" style="font-size:6.75px; font-family:Arial;" text-anchor="middle"><textPath startOffset="19.985693538727396" xlink:href="#id26">February</textPath></text><path d="M 115.68641384162765 86.03803664274999 l 19.914501901183133 -17.725246103372857 a47.66030261263666,47.66030261263666 0 0,0 0.5401685621975936,0.6175060441694495 l -20.216662326958573 17.379824503000457" fill="#bcff1f" stroke="none" /><line stroke="#e1ed5e" stroke-width="0.3" x1="172.23445277983987" x2="176.4835382374775" y1="55.19839476539836" y2="52.563006222186495" /><path d="M 173.08426987136738 54.67131705675599 a86.0,86.0 0 0,1 12.851231095245387,41.99856678651699" fill="none" id="id27" stroke="none" /><text fill="#e1ed5e" style="font-size:6.75px; font-family:Arial;" text-anchor="middle"><textPath startOffset="22.20632615414155" xlink:href="#id27">March</textPath></text><line stroke="#e1ed5e" stroke-width="0.3" x1="184.98032266829074" x2="189.97916517819016" y1="98.17113171792111" y2="98.06355123074" /><path d="M 185.9800911702706 98.14961562048488 a86.0,86.0 0 0,1 -9.607161424134198,41.387399972396054" fill="none" id="id28" stroke="none" /><text fill="#e1ed5e" style="font-size:6.75px; font-family:Arial;" text-anchor="middle"><textPath startOffset="21.466115282336823" xlink:href="#id28">April</textPath></text><line stroke="#e1ed5e" stroke-width="0.3" x1="174.80103733775053" x2="179.2010983576182" y1="140.37084112569926" y2="142.7455964860345" /><path d="M 175.68104954172406 140.8457921977663 a86.0,86.0 0 0,1 -30.038265399797805,32.042727171017184" fill="none" id="id29" stroke="none" /><text fill="#e1ed5e" style="font-size:6.75px; font-family:Arial;" text-anchor="middle"><textPath startOffset="22.206326154141568" xlink:href="#id29">May</textPath></text><line stroke="#e1ed5e" stroke-width="0.3" x1="143.8653032363475" x2="146.44561519142675" y1="172.8068346515853" y2="177.08958963109032" /><path d="M 144.38136562736335 173.6633856474863 a86.0,86.0 0 0,1 -40.68145358897372,12.25698825130547" fill="none" id="id30" stroke="none" /><text fill="#e1ed5e" style="font-size:6.75px; font-family:Arial;" text-anchor="middle"><textPath startOffset="21.466115282336833" xlink:href="#id30">June</textPath></text><line stroke="#e1ed5e" stroke-width="0.3" x1="102.19456741930631" x2="102.32365962044197" y1="184.97166512339345" y2="189.96999836594603" /><path d="M 102.22038585953345 185.97133177190398 a86.0,86.0 0 0,1 -42.740103519485714,-10.115201625700543" fill="none" id="id31" stroke="none" /><text fill="#e1ed5e" style="font-size:6.75px; font-family:Arial;" text-anchor="middle"><textPath startOffset="22.20632615414155" xlink:href="#id31">July</textPath></text><line stroke="#e1ed5e" stroke-width="0.3" x1="58.666819895761336" x2="56.23545636021788" y1="174.27360380694188" y2="178.64263932499728" /><path d="M 58.180547188652646 175.14741091055294 a86.0,86.0 0 0,1 -31.652253787137756,-30.449443065178592" fill="none" id="id32" stroke="none" /><text fill="#e1ed5e" style="font-size:6.75px; font-family:Arial;" text-anchor="middle"><textPath startOffset="22.20632615414155" xlink:href="#id32">August</textPath></text><path d="M 86.51685102203217 116.09983520530335 l -5.489434448175992 6.5547736756721005 a29.549792307425086,29.549792307425086 0 0,0 -0.3871508582738267,-0.3299383604794588 l 5.601450783026874 -6.4593109249696905" fill="#ff5808" stroke="none" /><path d="M 84.67929136418377 114.36230785411682 l -27.60113720103626 25.87452310647506 a58.83270702418662,58.83270702418662 0 0,0 -0.6862515672814009,-0.7447905399533409 l 28.04243517631339 -25.395581311720374" fill="#42ff2d" stroke="none" /><line stroke="#e1ed5e" stroke-width="0.3" x1="26.63291911575756" x2="22.317208475507996" y1="142.92168965132927" y2="145.44649492493687" /><path d="M 25.769776987707644 143.4266507060508 a86.0,86.0 0 0,1 -11.730757126820373,-40.83630448921669" fill="none" id="id33" stroke="none" /><text fill="#e1ed5e" style="font-size:6.75px; font-family:Arial;" text-anchor="middle"><textPath startOffset="21.46611528233685" xlink:href="#id33">September</textPath></text><path d="M 80.58989483394504 108.01547362559985 l -22.9217045350825 9.465601375311273 a45.79923684692568,45.79923684692568 0 0,0 -0.29463605557268463,-0.7312625270043458 l 23.081243204912575 -9.06963948046412" fill="#d2ff1c" stroke="none" /><line stroke="#e1ed5e" stroke-width="0.3" x1="15.007084014347285" x2="10.007500721073583" y1="101.09737516637583" y2="101.16192664675087" /><path d="M 14.007167355692545 101.11028546245083 a86.0,86.0 0 0,1 10.666146001902534,-42.60595125391555" fill="none" id="id34" stroke="none" /><text fill="#e1ed5e" style="font-size:6.75px; font-family:Arial;" text-anchor="middle"><textPath startOffset="22.20632615414155" xlink:href="#id34">October</textPath></text><path d="M 79.46518482838121 95.60439243477599 l -17.844703310506617 -3.819772041544865 a39.248947769374915,39.248947769374915 0 0,0 0.14710059493874583,-0.6594231235823287 l 17.776308328565836 4.126373334677153" fill="#ffdb14" stroke="none" /><path d="M 81.26839172434947 90.50648371742162 l -38.69730038863892 -19.61248847003298 a64.38353099225247,64.38353099225247 0 0,0 0.5095207386074193,-0.9842318897957205 l 38.35397021687139 20.275693082089035" fill="#34ff5c" stroke="none" /><line stroke="#e1ed5e" stroke-width="0.3" x1="26.266209847984243" x2="21.928928074336255" y1="57.711370442889674" y2="55.22380399835377" /><path d="M 25.398753493254645 57.213857153982495 a86.0,86.0 0 0,1 29.58750427330803,-30.492523968695096" fill="none" id="id35" stroke="none" /><text fill="#e1ed5e" style="font-size:6.75px; font-family:Arial;" text-anchor="middle"><textPath startOffset="21.46611528233685" xlink:href="#id35">November</textPath></text><path d="M 85.57189188830299 84.74124197986013 l -4.248160113956859 -4.492733677059568 a27.183164258435898,27.183164258435898 0 0,0 0.3427565518639653,-0.3185548599990776 l 4.170195678298038 4.565193123133293" fill="#ff3605" stroke="none" /><path d="M 86.10567301691215 84.25364557470407 l -2.934969766692635 -3.326182997573275 a25.435937427956503,25.435937427956503 0 0,0 0.33079582137178853,-0.28686287657746057 l 2.8772801466740727 3.376210867570416" fill="#ff1d02" stroke="none" /><path d="M 86.65592168130627 83.78471172551755 l -2.803879098193295 -3.407182330480421 a25.412553617852506,25.412553617852506 0 0,0 0.34016106932265466,-0.2750532614421971 l 2.74481463030614 3.4549416891867524" fill="#ff1d02" stroke="none" /><path d="M 88.09926311788651 82.69761687909137 l -1.4099227044663667 -2.0498749821290327 a23.487944829558778,23.487944829558778 0 0,0 0.335089428998762,-0.22625387826694732 l 1.374428581061065 2.0738407726946453" fill="#ff0000" stroke="none" /><path d="M 88.70189139769569 82.29822771554957 l -1.904777985356104 -2.98438856768743 a24.540445494064368,24.540445494064368 0 0,0 0.35803440436353473,-0.22420111116630706 l 1.853124428620327 3.016734020176667" fill="#ff1001" stroke="none" /><line stroke="#e1ed5e" stroke-width="0.3" x1="56.762969772571076" x2="54.21961505331055" y1="26.818313649435495" y2="22.513508569990535" /><path d="M 56.25429882871897 25.957352633546506 a86.0,86.0 0 0,1 42.265352541879196,-11.944610805530505" fill="none" id="id36" stroke="none" /><text fill="#e1ed5e" style="font-size:6.75px; font-family:Arial;" text-anchor="middle"><textPath startOffset="22.20632615414155" xlink:href="#id36">December</textPath></text><path d="M 89.94658935756843 81.56283822128135 l -4.5094719690853475 -8.270015737715289 a30.419580550216928,30.419580550216928 0 0,0 0.4618778067127565,-0.2467191285045505 l 4.3664491158442855 8.34641359272159" fill="#ff6509" stroke="none" /><path d="M 90.58718382345135 81.22770947309562 l -1.5479600478984568 -3.087147905383352 a24.45350003613763,24.45350003613763 0 0,0 0.37789825637563085,-0.18543303320941307 l 1.4945905245124 3.113336098727595" fill="#ff0e01" stroke="none" /><path d="M 90.91171255644093 81.06846463323043 l -2.147533778317051 -4.473462346787325 a25.96223404296257,25.96223404296257 0 0,0 0.4045432696284005,-0.18993848942355906 l 2.070212297389042 4.509765818850891" fill="#ff2503" stroke="none" /><path d="M 91.56875222667455 80.76684994638697 l -1.4446968104843634 -3.2956059749460467 a24.59835623810703,24.59835623810703 0 0,0 0.38925872902776465,-0.16666027318559104 l 1.3877543236662906 3.319985776094424" fill="#ff1101" stroke="none" /><path d="M 92.23578459929587 80.48803036053334 l -2.394534017749026 -6.017617060282987 a27.47653520382358,27.47653520382358 0 0,0 0.44095499672226646,-0.17108368808133556 l 2.290595856027083 6.057943452254873" fill="#ff3b05" stroke="none" /><path d="M 94.63758080256005 79.69619591428918 l -2.396132928647045 -9.072512191847329 a30.383599015461236,30.383599015461236 0 0,0 0.5068145078512035,-0.12919830274701746 l 2.2396095321108422 9.11241349076321" fill="#ff6409" stroke="none" /><path d="M 99.27714615592234 79.0124445844662 l -2.1685615322329856 -62.9626662466014 a84.0,84.0 0 0,0 1.445493459220484,-0.03733283143056143 l 1.0844414378176228 62.990665870174325" fill="#4dd2ff" stroke="none" /><path d="M 99.63851952072746 79.00311137660856 l -0.45998091732355706 -26.71836694851316 a47.722326149489724,47.722326149489724 0 0,0 0.8214613965960862,-0.0070705775851209315 l 6.545082236948841e-15 26.722326149489724" fill="#bbff1f" stroke="none" /></svg>