<?xml version="1.0" encoding="utf-8" ?>
<svg baseProfile="full" height="200mm" version="1.1" viewBox="0,0,200,200" width="200mm" xmlns="http://www.w3.org/2000/svg" xmlns:ev="http://www.w3.org/2001/xml-events" xmlns:xlink="http://www.w3.org/1999/xlink"><defs /><rect fill="#1a1a1a" height="200" width="200" x="0" y="0" /><text alignment-baseline="middle" fill="#e1ed5e" style="dominant-baseline: central; font-size:9.0px; font-family:Arial;" text-anchor="middle" x="100.0" y="100.0">2024</text><line stroke="#e1ed5e" stroke-width="0.3" x1="100.0" x2="100.0" y1="15.0" y2="10.0" /><path d="M 100.0 14.0 a86.0,86.0 0 0,1 42.35913384403234,11.155469271406648" fill="none" id="id37" stroke="none" /><text fill="#e1ed5e" style="font-size:6.75px; font-family:Arial;" text-anchor="middle"><textPath startOffset="22.145653131862478" xlink:href="#id37">January</textPath></text><path d="M 100.0 79.0 l 0.0 -63.0 a84.0,84.0 0 0,0 1.441971699395419,0.012377592777739643 l -1.0814787745465644 62.990716805416696" fill="#4dd2ff" stroke="none" /><path d="M 102.87502721639298 79.19773525538626 l 0.9969452268687695 -7.213399033913156 a28.281965765357295,28.281965765357295 0 0,0 0.48035557869361745,0.07059572811513243 l -1.120625911170069 7.19522223249914" fill="#ff1a02" stroke="none" /><path d="M 104.29559338865022 79.4440306129975 l 1.511377795497116 -7.232489876374531 a28.38871928365003,28.38871928365003 0 0,0 0.47617018455955584,0.1037790754693806 l -1.6353103966758058 7.205479342771432" fill="#ff1b02" stroke="none" /><path d="M 105.69591212413111 79.78721728523813 l 2.4329926349433584 -8.633832546043344 a29.970090166481377,29.970090166481377 0 0,0 0.49399269710228866,0.14379407459976945 l -2.5808453444272517 8.590794777141058" fill="#ff3404" stroke="none" /><path d="M 107.40779381753099 80.34994680014964 l 2.372116092324079 -6.292319759235026 a27.724598330601047,27.724598330601047 0 0,0 0.4438942366654171,0.17170782667647289 l -2.479782591483022 6.250672044420515" fill="#ff1101" stroke="none" /><path d="M 110.02825361518725 81.54914285379988 l 2.7660569671772173 -5.0892332721169815 a26.7923541365918,26.7923541365918 0 0,0 0.4022116835495482,0.2231000407880237 l -2.853012838882866 5.041000315895812" fill="#ff0200" stroke="none" /><line stroke="#e1ed5e" stroke-width="0.3" x1="143.13028292997686" x2="145.6673583964461" y1="26.7553504044142" y2="22.446841604673864" /><path d="M 143.63769802327073 25.89364864446614 a86.0,86.0 0 0,1 29.32050498858742,28.57503671076993" fill="none" id="id38" stroke="none" /><text fill="#e1ed5e" style="font-size:6.75px; font-family:Arial;" text-anchor="middle"><textPath startOffset="20.669276256404974" xlink:href="#id38">February</textPath></text><path d="M 111.27062007382361 82.28071324371311 l 3.9149923735144183 -6.155018274113809 a28.29461549633365,28.29461549633365 0 0,0 0.4075965579716408,0.2641991644353102 l -4.020074563743067 6.086905267974604" fill="#ff1a02" stroke="none" /><path d="M 116.57777611688842 87.10902102172516 l 5.699295205300629 -4.431806423520636 a28.21961730375797,28.21961730375797 0 0,0 0.29408606889264866,0.38496810447011376 l -5.7745332515475845 4.333317405809641" fill="#ff1902" stroke="none" /><line stroke="#e1ed5e" stroke-width="0.3" x1="172.87174338648825" x2="177.1583165268699" y1="56.24261187166439" y2="53.66864786411523" /><path d="M 173.72905801456457 55.72781907015455 a86.0,86.0 0 0,1 12.242430191666344,42.057860355516425" fill="none" id="id39" stroke="none" /><text fill="#e1ed5e" style="font-size:6.75px; font-family:Arial;" text-anchor="middle"><textPath startOffset="22.145653131862474" xlink:href="#id39">March</textPath></text><path d="M 118.70294669586156 90.45014215332178 l 6.212420972659006 -3.1721064138916444 a27.975416363385484,27.975416363385484 0 0,0 0.21471809701848885,0.42958002798795997 l -6.265958982889232 3.064994529739934" fill="#ff1502" stroke="none" /><path d="M 119.83427380445688 93.10060997987247 l 6.531856149770935 -2.2721186354960787 a27.915755045912842,27.915755045912842 0 0,0 0.15355603217227368,0.45396112399850996 l -6.569897603515573 2.159655837023407" fill="#ff1402" stroke="none" /><path d="M 120.26092885502905 94.47779374421319 l 10.471467733308675 -2.8540450952619465 a31.853442306269173,31.853442306269173 0 0,0 0.13926100363310204,0.5287967138477009 l -10.518918217746508 2.673867877041447" fill="#ff5007" stroke="none" /><path d="M 120.43855184770803 95.1765574152323 l 6.972047659427489 -1.6453842637233485 a28.163570195135716,28.163570195135716 0 0,0 0.10700700006333637,0.47149258639561314 l -6.999265521048492 1.5254573433887089" fill="#ff1802" stroke="none" /><path d="M 120.65975698304385 96.23510406497455 l 6.95355189514899 -1.2671687902970623 a28.068069092873458,28.068069092873458 0 0,0 0.08231319798691376,0.474760652107373 l -6.9742799106281375 1.1476151052690966" fill="#ff1602" stroke="none" /><path d="M 120.7213421655516 96.59031103205396 l 6.99731470638022 -1.151405472144334 a28.091413657474003,28.091413657474003 0 0,0 0.07421284349730552,0.4764996919545122 l -7.016049042015791 1.0311175982583807" fill="#ff1702" stroke="none" /><path d="M 120.77682067341334 96.94652285012252 l 5.786512710911626 -0.8504180989950039 a26.848669959626726,26.848669959626726 0 0,0 0.06310138503366282,0.45657018818380185 l -5.800258612500501 0.7509596026111164" fill="#ff0300" stroke="none" /><path d="M 120.82617615685814 97.30363454192243 l 6.673833395897183 -0.8640613478982723 a27.729535957933823,27.729535957933823 0 0,0 0.057067271099501854,0.47259886930114764 l -6.687682753256348 0.7493688016737117" fill="#ff1101" stroke="none" /><path d="M 120.9064616781168 98.02013634271609 l 5.62781922192947 -0.532960331538305 a26.652998842182107,26.652998842182107 0 0,0 0.039226078021578945,0.4558664861158411 l -5.63613892264879 0.4362727980468019" fill="#ff0000" stroke="none" /><path d="M 120.98066250479742 99.09900007780936 l 6.905306091753867 -0.29654355528335463 a27.911670586840287,27.911670586840287 0 0,0 0.016448364759667433,0.47887619323754615 l -6.909379143510383 0.1779610974816885" fill="#ff1402" stroke="none" /><line stroke="#e1ed5e" stroke-width="0.3" x1="184.99686870605535" x2="189.99668451229388" y1="99.2704041080226" y2="99.22748670261217" /><path d="M 185.99683186730306 99.26182062694052 a86.0,86.0 0 0,1 -10.086455211305974,41.156179273409016" fill="none" id="id40" stroke="none" /><text fill="#e1ed5e" style="font-size:6.75px; font-family:Arial;" text-anchor="middle"><textPath startOffset="21.40746469413373" xlink:href="#id40">April</textPath></text><path d="M 120.99922638620191 100.18025310272382 l 6.8195055906549085 0.05853725366596003 a27.819756821987152,27.819756821987152 0 0,0 -0.008198308000060953,0.47751034016551164 l -6.8174958510561785 -0.1755945098005427" fill="#ff1202" stroke="none" /><line stroke="#e1ed5e" stroke-width="0.3" x1="174.33088141563837" x2="178.70328620479359" y1="141.23008692659167" y2="143.65538615756765" /><path d="M 175.20536237346943 141.71514677278685 a86.0,86.0 0 0,1 -30.301960400862466,31.631185727798858" fill="none" id="id41" stroke="none" /><text fill="#e1ed5e" style="font-size:6.75px; font-family:Arial;" text-anchor="middle"><textPath startOffset="22.145653131862474" xlink:href="#id41">May</textPath></text><line stroke="#e1ed5e" stroke-width="0.3" x1="143.1302829299769" x2="145.66735839644613" y1="173.24464959558577" y2="177.55315839532614" /><path d="M 143.63769802327073 174.10635135553383 a86.0,86.0 0 0,1 -40.68552437913181,11.842963189579606" fill="none" id="id42" stroke="none" /><text fill="#e1ed5e" style="font-size:6.75px; font-family:Arial;" text-anchor="middle"><textPath startOffset="21.407464694133747" xlink:href="#id42">June</textPath></text><line stroke="#e1ed5e" stroke-width="0.3" x1="101.45913802915013" x2="101.54496967792366" y1="184.9874750549273" y2="189.98673829345242" /><path d="M 101.47630435890484 185.9873277026323 a86.0,86.0 0 0,1 -42.54439059252881,-10.42667462771756" fill="none" id="id43" stroke="none" /><text fill="#e1ed5e" style="font-size:6.75px; font-family:Arial;" text-anchor="middle"><textPath startOffset="22.145653131862474" xlink:href="#id43">July</textPath></text><line stroke="#e1ed5e" stroke-width="0.3" x1="58.13341422392154" x2="55.67067388415222" y1="173.97424548756322" y2="178.32567169271397" /><path d="M 57.64086615596768 174.84453072859336 a86.0,86.0 0 0,1 -31.369924170532247,-30.572349798747897" fill="none" id="id44" stroke="none" /><text fill="#e1ed5e" style="font-size:6.75px; font-family:Arial;" text-anchor="middle"><textPath startOffset="22.145653131862474" xlink:href="#id44">August</textPath></text><line stroke="#e1ed5e" stroke-width="0.3" x1="26.387840678322732" x2="22.057713659400548" y1="142.50000000000003" y2="145.00000000000006" /><path d="M 25.521815274538298 143.00000000000003 a86.0,86.0 0 0,1 -11.493303480769221,-40.785679425670985" fill="none" id="id45" stroke="none" /><text fill="#e1ed5e" style="font-size:6.75px; font-family:Arial;" text-anchor="middle"><textPath startOffset="21.40746469413373" xlink:href="#id45">September</textPath></text><line stroke="#e1ed5e" stroke-width="0.3" x1="15.003131293944662" x2="10.003315487706104" y1="100.72959589197737" y2="100.7725132973878" /><path d="M 14.003168132696942 100.73817937305945 a86.0,86.0 0 0,1 10.791469493833604,-42.45332614584628" fill="none" id="id46" stroke="none" /><text fill="#e1ed5e" style="font-size:6.75px; font-family:Arial;" text-anchor="middle"><textPath startOffset="22.145653131862435" xlink:href="#id46">October</textPath></text><line stroke="#e1ed5e" stroke-width="0.3" x1="26.387840678322718" x2="22.05771365940052" y1="57.49999999999999" y2="54.99999999999999" /><path d="M 25.521815274538284 56.99999999999999 a86.0,86.0 0 0,1 29.574782752854787,-30.34633250058573" fill="none" id="id47" stroke="none" /><text fill="#e1ed5e" style="font-size:6.75px; font-family:Arial;" text-anchor="middle"><textPath startOffset="21.40746469413373" xlink:href="#id47">November</textPath></text><line stroke="#e1ed5e" stroke-width="0.3" x1="56.869717070023135" x2="54.33264160355391" y1="26.7553504044142" y2="22.446841604673864" /><path d="M 56.362301976729285 25.89364864446614 a86.0,86.0 0 0,1 42.16139366436587,-11.88097634709845" fill="none" id="id48" stroke="none" /><text fill="#e1ed5e" style="font-size:6.75px; font-family:Arial;" text-anchor="middle"><textPath startOffset="22.145653131862474" xlink:href="#id48">December</textPath></text></svg>